HIERARCHY
ROOT root
{
	OFFSET 0.000000 0.000000 0.000000
	CHANNELS 6 Xposition Yposition Zposition Zrotation Yrotation Xrotation
	JOINT lhip
	{
		OFFSET 0.058581 -0.082280 -0.017664
		CHANNELS 3 Zrotation Yrotation Xrotation
		JOINT lknee
		{
			OFFSET 0.043451 -0.386469 0.008037
			CHANNELS 3 Zrotation Yrotation Xrotation
			JOINT lankle
			{
				OFFSET -0.014790 -0.426874 -0.037428
				CHANNELS 3 Zrotation Yrotation Xrotation
				JOINT ltoe
				{
					OFFSET 0.041054 -0.060286 0.122042
					CHANNELS 3 Zrotation Yrotation Xrotation
					End Site
					{
						OFFSET 0.000000 0.000000 0.000000
					}
				}
			}
		}
	}
	JOINT rhip
	{
		OFFSET -0.060310 -0.090513 -0.013543
		CHANNELS 3 Zrotation Yrotation Xrotation
		JOINT rknee
		{
			OFFSET -0.043257 -0.383688 -0.004843
			CHANNELS 3 Zrotation Yrotation Xrotation
			JOINT rankle
			{
				OFFSET 0.019056 -0.420046 -0.034562
				CHANNELS 3 Zrotation Yrotation Xrotation
				JOINT rtoe
				{
					OFFSET -0.034840 -0.062106 0.130323
					CHANNELS 3 Zrotation Yrotation Xrotation
					End Site
					{
						OFFSET 0.000000 0.000000 0.000000
					}
				}
			}
		}
	}
	JOINT lowerback
	{
		OFFSET 0.004439 0.124404 -0.038385
		CHANNELS 3 Zrotation Yrotation Xrotation
		JOINT upperback
		{
			OFFSET 0.004488 0.137956 0.026820
			CHANNELS 3 Zrotation Yrotation Xrotation
			JOINT chest
			{
				OFFSET -0.002265 0.056032 0.002855
				CHANNELS 3 Zrotation Yrotation Xrotation
				JOINT lowerneck
				{
					OFFSET -0.013390 0.211636 -0.033468
					CHANNELS 3 Zrotation Yrotation Xrotation
					JOINT upperneck
					{
						OFFSET 0.010113 0.088937 0.050410
						CHANNELS 3 Zrotation Yrotation Xrotation
						End Site
						{
							OFFSET 0.000000 0.000000 0.000000
						}
					}
				}
				JOINT lclavicle
				{
					OFFSET 0.071702 0.114000 -0.018898
					CHANNELS 3 Zrotation Yrotation Xrotation
					JOINT lshoulder
					{
						OFFSET 0.122921 0.045205 -0.019046
						CHANNELS 3 Zrotation Yrotation Xrotation
						JOINT lelbow
						{
							OFFSET 0.255332 -0.015649 -0.022946
							CHANNELS 3 Zrotation Yrotation Xrotation
							JOINT lwrist
							{
								OFFSET 0.265709 0.012698 -0.007375
								CHANNELS 3 Zrotation Yrotation Xrotation
								End Site
								{
									OFFSET 0.000000 0.000000 0.000000
								}
							}
						}
					}
				}
				JOINT rclavicle
				{
					OFFSET -0.082954 0.112472 -0.023707
					CHANNELS 3 Zrotation Yrotation Xrotation
					JOINT rshoulder
					{
						OFFSET -0.113228 0.046853 -0.008472
						CHANNELS 3 Zrotation Yrotation Xrotation
						JOINT relbow
						{
							OFFSET -0.260127 -0.014369 -0.031269
							CHANNELS 3 Zrotation Yrotation Xrotation
							JOINT rwrist
							{
								OFFSET -0.269108 0.006794 -0.006027
								CHANNELS 3 Zrotation Yrotation Xrotation
								End Site
								{
									OFFSET 0.000000 0.000000 0.000000
								}
							}
						}
					}
				}
			}
		}
	}
}
MOTION
Frames: 17
Frame Time: 0.033333
-0.944448 0.628689 0.895663 103.966396 -2.883809 85.331763 16.631729 6.439309 -22.614127 -8.314068 1.061988 55.032933 -4.063536 1.526175 -16.592533 0.000000 -0.000000 0.000000 -13.815466 -7.892492 -31.124443 -1.547016 -9.310581 46.559200 3.476717 -5.347178 -15.325155 0.000000 -0.000000 0.000000 1.139056 -1.986116 32.405183 3.204099 -1.772394 3.078560 0.952570 -1.610762 0.517240 -2.885311 3.553618 -14.660197 -3.297257 -4.015260 10.073451 -32.222102 -5.830992 1.653206 -46.562048 -18.053632 5.672393 46.677830 -64.362908 -31.255485 11.428857 -15.174987 -16.508280 34.247888 6.915721 2.293139 34.446784 11.501392 0.792469 -64.020860 48.164297 -56.537607 -4.911265 15.725732 -6.198794 
-0.921816 0.641242 0.894177 103.516145 -3.499815 86.322671 17.296091 5.461182 -24.060100 -7.656015 0.139899 44.955226 -3.717615 1.864709 -17.403396 0.000000 -0.000000 0.000000 -14.785910 -8.103016 -31.487161 -1.410505 -8.585555 48.170075 3.624508 -5.160081 -17.622634 0.000000 -0.000000 0.000000 1.085576 -1.483523 33.444028 2.849711 -1.666929 2.966599 0.916357 -1.225756 0.064225 -2.959793 3.686454 -15.935700 -3.406247 -5.549516 10.584034 -31.961549 -8.922673 1.449277 -46.080386 -19.789483 7.021857 45.217637 -63.809351 -29.446360 11.864832 -15.888882 -15.197609 33.633061 9.666069 2.901129 31.789356 13.329604 -0.623783 -66.100966 46.303731 -59.365575 -6.356293 15.071096 -7.460144 
-0.900812 0.655300 0.891519 102.925363 -4.073587 87.240051 17.785764 4.437199 -24.496787 -7.203742 -2.341765 33.601359 -5.333468 1.234793 -15.033430 0.000000 -0.000000 0.000000 -15.836319 -8.150968 -31.940673 -1.447898 -8.015603 49.976897 4.316886 -5.504063 -19.288750 0.000000 -0.000000 0.000000 0.642046 -0.857419 34.535061 2.437887 -1.587809 2.994275 1.035558 -0.955291 -0.526664 -2.819298 4.155800 -16.856073 -3.218649 -7.015867 10.947123 -31.156962 -12.103953 1.274478 -45.507480 -21.765260 8.604537 43.972294 -63.428424 -27.863793 12.996882 -16.947234 -13.964241 32.828860 12.590214 2.921702 29.075567 15.422778 -2.013579 -67.441155 44.857226 -61.653113 -7.870543 15.886922 -7.665418 
-0.875646 0.675364 0.885905 102.417131 -3.678490 88.343016 18.712160 4.200062 -25.632294 -5.141427 -6.032856 22.790220 -11.196073 -2.885330 -6.975910 0.000000 -0.000000 0.000000 -16.030063 -8.972175 -32.466362 -2.140042 -7.660000 52.267352 3.722811 -4.142704 -21.008077 0.000000 -0.000000 0.000000 0.754810 -0.492791 35.236582 2.032145 -2.194824 5.770741 1.484063 -0.594425 -3.514793 -3.461410 4.037653 -17.813432 -1.501277 -7.504344 10.593872 -29.594393 -17.260560 -0.580178 -45.165255 -22.283434 9.300267 42.681176 -63.533180 -24.569102 10.340247 -17.675714 -10.591634 31.851731 17.418114 4.276893 24.223315 17.224233 -8.746125 -67.537303 47.285547 -63.847656 -9.135868 17.099996 -8.447008 
-0.860054 0.690234 0.881192 101.509343 -3.544186 88.471069 19.027816 4.764366 -26.117947 -5.006408 -6.956552 19.990513 -12.874763 -4.069547 -3.906553 0.000000 -0.000000 0.000000 -16.714106 -9.358551 -32.797109 -2.538454 -7.778476 54.397970 3.882723 -3.086665 -21.447958 0.000000 -0.000000 0.000000 0.490343 0.085272 36.277118 1.977041 -2.366810 5.885732 1.698480 -0.545151 -4.081747 -3.518137 4.243301 -17.976323 -1.265000 -8.151703 10.587256 -28.748001 -20.602332 -0.254439 -44.662341 -23.494549 9.806700 42.575215 -62.323470 -24.256062 12.866936 -19.148268 -8.663346 30.997098 20.342094 4.670972 21.808252 18.530377 -10.498961 -68.086251 47.090079 -65.308437 -9.954605 17.136036 -9.572493 
-0.840999 0.713582 0.871536 100.033147 -2.950068 88.574459 19.776501 5.120944 -27.479965 -4.577543 -4.717192 21.642097 -13.769249 -4.192607 -1.944928 0.000000 -0.000000 0.000000 -17.947616 -10.495599 -34.701354 -2.158943 -7.713876 59.444221 5.025444 -1.028099 -19.449012 0.000000 -0.000000 0.000000 0.545494 0.434782 37.772436 1.912751 -2.456605 5.787755 1.784208 -0.399371 -4.620499 -3.370553 4.376389 -18.042847 -0.773167 -7.706786 9.984715 -27.026047 -24.645814 -0.661088 -44.490185 -25.450547 10.491699 41.132280 -60.735522 -21.435175 14.725882 -20.679441 -5.465830 29.134958 23.954214 4.814733 18.997427 20.838964 -12.556795 -68.688424 47.086334 -66.655912 -9.449149 17.718642 -11.375639 
-0.823762 0.737827 0.859511 97.824235 -1.756251 88.211952 21.114235 5.999293 -28.912763 -5.565843 -3.838060 29.569617 -10.552537 -4.585225 -9.578545 0.000000 -0.000000 0.000000 -19.252274 -11.662696 -39.198907 -0.592291 -6.717224 67.428583 7.741492 1.240348 -10.451658 0.000000 -0.000000 0.000000 0.848597 0.779017 40.514876 1.799203 -2.008366 4.341327 2.051248 -0.046379 -4.595024 -3.713598 3.373078 -18.343465 0.085613 -6.780851 9.730279 -24.200084 -29.485541 -1.372843 -44.406278 -26.803557 10.510906 40.395279 -58.870096 -19.318883 18.531704 -22.471108 -1.978162 25.918987 28.265921 4.179768 17.117707 22.564745 -14.535435 -70.445879 46.968857 -69.286244 -8.739440 17.580826 -13.050086 
-0.808521 0.760356 0.848002 96.019329 -0.538887 87.646050 21.774298 7.609170 -31.570288 -6.466111 -3.559432 38.746179 -8.972789 -5.289108 -13.980300 0.000000 -0.000000 0.000000 -20.895844 -13.001153 -44.153492 1.481432 -5.780581 73.427968 10.358185 5.151650 2.147191 0.000000 -0.000000 0.000000 0.819137 1.003984 43.791858 2.088342 -1.710394 3.842764 2.702611 0.407197 -5.667086 -4.005632 3.358158 -18.353837 0.422371 -6.435967 8.232450 -21.754011 -33.599772 -2.100579 -43.397213 -27.890665 9.743341 40.027837 -57.440311 -17.147229 15.707236 -22.907486 -1.310269 23.736417 32.199442 4.132083 12.663210 24.979269 -17.841218 -71.015418 48.154054 -69.096612 -9.757153 16.435297 -16.258895 
-0.793710 0.777659 0.838509 95.061658 0.976010 87.088559 22.579302 8.417086 -32.966142 -7.453123 -4.629666 44.793210 -8.110837 -4.367155 -17.375521 0.000000 -0.000000 0.000000 -21.445131 -14.367733 -46.778920 1.626891 -5.830798 73.973480 8.456775 0.455271 2.964646 0.000000 -0.000000 0.000000 1.494070 0.859084 46.804944 2.358524 -1.185943 3.524826 3.193008 0.788181 -5.976644 -4.663791 2.893395 -19.681549 0.729729 -5.926074 7.080980 -19.157610 -37.196025 -2.318070 -41.209596 -29.011218 9.454496 37.159564 -56.721924 -12.420612 21.383604 -23.442940 -6.878003 21.275806 36.343747 3.084094 9.055300 27.247733 -19.820092 -72.496740 47.855278 -69.931267 -11.360289 14.642839 -18.333382 
-0.775818 0.793798 0.831332 93.192713 2.091701 87.553524 22.552296 9.347339 -33.538088 -6.933757 -5.067626 49.070795 -7.300732 -3.145868 -22.131968 0.000000 -0.000000 0.000000 -21.708512 -14.809999 -47.690449 -1.113341 -6.381534 64.773149 8.242800 -1.005331 -1.178071 0.000000 -0.000000 0.000000 2.233018 1.135719 49.663120 1.766652 -0.479147 2.051708 3.721248 1.578358 -5.583982 -5.312787 2.664032 -21.052932 0.783639 -6.454431 6.382578 -15.531484 -39.332445 -3.640245 -42.288469 -29.926739 9.980875 34.982154 -56.757147 -8.453469 28.797020 -23.864249 -10.355770 16.714779 40.199871 0.697358 7.840412 30.871929 -21.924151 -73.962764 47.977602 -70.086072 -11.007219 14.533950 -20.444276 
-0.763860 0.801096 0.829082 91.738074 2.598681 89.428728 22.938760 8.964123 -34.777973 -6.379448 -4.280683 50.882121 -7.063699 -1.898424 -24.503286 0.000000 -0.000000 0.000000 -22.065748 -13.496578 -47.757049 1.478052 -4.760689 51.718040 15.428286 3.889867 1.126449 0.000000 -0.000000 0.000000 2.727683 1.422552 50.742572 1.167616 -0.201349 1.382071 3.845568 2.427993 -6.269855 -5.993883 2.446933 -20.987195 0.745093 -6.699075 4.550184 -13.486451 -40.945602 -3.892961 -44.176013 -27.561559 11.385460 41.197623 -58.684979 -13.750279 36.788316 -23.638170 -7.457747 13.859027 43.138088 -0.213168 6.893354 33.448429 -24.394191 -75.482057 48.812177 -71.665770 -11.791794 13.532654 -20.192567 
-0.750307 0.801821 0.827083 91.421086 3.043128 91.338370 23.405473 9.236659 -35.926159 -5.654773 -3.442746 51.567845 -7.696561 -2.760362 -25.631083 0.000000 -0.000000 0.000000 -22.352477 -12.496717 -47.302927 1.925766 -4.745048 40.168138 23.157969 6.500506 7.055681 0.000000 -0.000000 0.000000 3.354317 1.256832 51.376982 0.364309 0.651101 0.712041 3.801314 3.267653 -6.896331 -6.171952 1.013319 -21.218082 1.021818 -7.108660 3.293980 -14.309844 -39.709698 -3.243016 -47.442927 -27.102438 12.266862 46.176210 -62.560326 -17.719927 33.697792 -23.256760 -1.844060 12.089751 43.880268 -0.969610 6.735547 36.655596 -25.877164 -78.433970 49.588575 -74.942495 -10.056544 13.435229 -20.147269 
-0.736934 0.796707 0.825344 92.414052 2.696034 92.986577 23.317589 9.215705 -36.748509 -5.237024 -2.923242 51.413832 -7.386218 -4.056273 -26.695616 0.000000 -0.000000 0.000000 -22.125330 -13.381081 -47.133392 0.080712 -7.097706 34.448693 27.067181 6.440490 10.810634 0.000000 -0.000000 0.000000 3.822928 1.537866 51.872372 -0.140375 1.248667 -0.366925 3.825581 4.169074 -6.986168 -5.892980 -1.164255 -20.722867 1.512987 -8.106378 1.958041 -13.522519 -38.176156 -4.367452 -51.269490 -27.656042 14.198813 44.833827 -65.793446 -14.638764 33.581047 -22.693842 0.406983 10.976504 43.952645 -1.505956 6.680129 37.759605 -26.966117 -82.220048 50.557236 -77.087597 -8.728695 15.590471 -20.751228 
-0.722541 0.784924 0.822403 94.634747 1.936985 94.038219 23.127384 9.225357 -37.343012 -6.171225 -3.563370 50.792114 -6.722595 -4.693073 -27.554675 0.000000 -0.000000 0.000000 -21.635716 -14.412689 -47.198303 0.264699 -5.715560 35.280357 24.437786 6.267820 10.142030 0.000000 -0.000000 0.000000 4.259838 2.265094 51.549990 0.076987 1.869334 -0.820438 4.113376 4.586158 -6.325415 -5.996698 -3.807035 -20.293172 2.002823 -9.436167 0.983425 -13.287970 -38.629525 -4.580478 -52.686860 -27.567356 15.110565 45.305927 -68.314891 -13.279178 33.514839 -22.345275 0.779872 9.292866 44.114249 -2.611308 7.061897 36.680340 -27.356194 -87.972709 50.299831 -79.879096 -2.825233 14.921164 -23.602789 
-0.706944 0.769031 0.817920 97.829170 0.883846 94.447265 22.692955 9.581750 -37.962353 -7.060269 -4.928484 50.027578 -6.987379 -6.258974 -26.756732 0.000000 -0.000000 0.000000 -21.857350 -14.940217 -46.805094 -0.686487 -5.130466 38.699767 18.489744 5.806127 2.864819 0.000000 -0.000000 0.000000 4.925013 2.256489 51.866600 0.153751 2.089943 -1.667959 4.021454 4.585480 -5.587873 -5.847791 -4.916574 -20.345095 2.141356 -11.355367 0.662079 -12.312683 -38.876184 -4.709734 -53.133247 -27.325132 15.215265 44.310928 -71.253980 -9.519417 35.482011 -21.805160 -1.840997 7.137466 43.773130 -3.871540 8.565886 36.021320 -27.511937 -93.443681 50.502858 -81.593540 -1.430465 14.663062 -28.753948 
-0.691895 0.751662 0.814466 101.276094 -0.101886 94.344372 22.467208 10.042192 -38.100224 -8.090315 -6.370853 48.758330 -7.938515 -8.573022 -25.651039 0.000000 -0.000000 0.000000 -22.706974 -15.174394 -46.840036 -1.568782 -4.730949 43.167710 15.868776 4.672723 -0.088137 0.000000 -0.000000 0.000000 5.473275 1.543653 52.909689 0.236918 2.299840 -2.443483 4.058443 4.293344 -5.474829 -5.717079 -6.007458 -20.056321 2.208775 -11.687465 -0.683196 -11.848461 -38.251734 -4.753337 -53.857404 -26.609578 15.048811 47.170921 -74.086136 -10.404051 32.684893 -21.025774 -3.133065 5.168141 43.521512 -5.241107 9.890479 36.601225 -27.615200 -96.999788 49.610559 -85.001889 1.305675 12.938464 -36.978299 
-0.679231 0.735041 0.811889 104.405278 -1.039862 94.955660 22.397086 10.848449 -38.574402 -9.298444 -6.932631 46.756489 -8.014874 -10.129446 -24.425381 0.000000 -0.000000 0.000000 -23.753012 -15.479041 -48.208186 -1.601703 -4.642590 48.403899 13.208102 2.575652 -4.177479 0.000000 -0.000000 0.000000 5.742134 0.142599 53.091275 0.217711 2.548929 -3.255893 3.820299 4.281666 -5.437099 -5.956569 -7.919747 -19.617676 2.685067 -11.306117 -1.733634 -12.260983 -37.329658 -4.827654 -54.066728 -25.245960 15.338103 48.791861 -76.672473 -10.633023 34.039326 -19.513843 -5.128590 3.518286 43.547994 -5.909097 11.456535 37.463568 -27.487366 -99.916256 47.541821 -88.588806 5.303841 10.479837 -42.209628 
